<svg xmlns="http://www.w3.org/2000/svg" xmlns:xlink="http://www.w3.org/1999/xlink" width="270.833" height="56.5" xmlns:v="https://vecta.io/nano"><g transform="matrix(1.333333 0 0 -1.333333 0 408)"><defs><path id="A" d="M-81.73 238.282h371.549v94.745H-81.73z"/></defs><clipPath id="B"><use xlink:href="#A"/></clipPath><g clip-path="url(#B)"><g fill="#fff"><path d="M17.845 289.557c0 1.916-1.393 2.961-3.309 2.961H9.485v-6.096h5.051c1.916.174 3.309 1.219 3.309 3.135M4.783 274.405v22.293h10.45c4.876 0 7.489-3.309 7.489-7.141s-2.613-7.141-7.489-7.141H9.486v-8.011H4.783zm27.527 13.16c-2.612 0-3.832-1.916-4.006-3.658h8.012c-.175 1.742-1.22 3.658-4.006 3.658m-8.36-5.051c0 4.703 3.483 8.534 8.36 8.534s8.012-3.657 8.012-8.882v-.871H28.304c.349-2.09 1.916-3.832 4.703-3.832 1.393 0 3.309.522 4.354 1.567l1.916-2.786c-1.567-1.393-4.18-2.264-6.618-2.264-5.052 0-8.709 3.309-8.709 8.534m19.463-8.017v16.197h4.18v-2.264c1.219 1.393 3.135 2.612 5.225 2.612v-4.18c-.349 0-.697.174-1.219.174-1.393 0-3.309-.871-4.006-1.916v-10.624h-4.18zm17.329 0l-6.444 16.197h4.528l4.18-11.321 4.18 11.321h4.529l-6.444-16.197h-4.529zm20.25 13.068c-2.613 0-3.832-1.916-4.006-3.658h8.011c-.174 1.742-1.219 3.658-4.005 3.658m-8.36-5.051c0 4.703 3.483 8.534 8.36 8.534s8.012-3.657 8.012-8.882v-.871H76.987c.348-2.09 1.916-3.832 4.702-3.832 1.393 0 3.309.522 4.354 1.567l1.916-2.786c-1.567-1.393-4.18-2.264-6.618-2.264-5.051 0-8.709 3.309-8.709 8.534m19.463-8.017v16.197h4.18v-2.264c1.219 1.393 3.135 2.612 5.224 2.612v-4.18c-.348 0-.696.174-1.219.174-1.393 0-3.309-.871-4.006-1.916v-10.624h-4.179zm10.622 2.099l1.915 2.961c1.219-1.045 3.658-2.264 5.574-2.264s2.787.697 2.787 1.742c0 2.613-9.579.523-9.579 6.792 0 2.786 2.438 5.051 6.618 5.051 2.787 0 4.876-.871 6.444-2.264l-1.742-2.961a6.85 6.85 0 0 1-4.702 1.916c-1.567 0-2.613-.697-2.613-1.567 0-2.438 9.579-.348 9.579-6.966 0-2.961-2.438-5.225-6.967-5.225-2.786.173-5.572 1.217-7.314 2.785m27.066 1.712v2.09c-.697.871-2.09 1.393-3.483 1.393-1.742 0-2.961-.871-2.961-2.438s1.394-2.438 2.961-2.438 2.785.522 3.483 1.393m0-3.831v1.741c-1.045-1.219-2.961-2.09-5.051-2.09-2.613 0-5.574 1.742-5.574 5.399 0 3.831 2.961 5.225 5.574 5.225 2.09 0 4.006-.697 5.051-1.916v2.09c0 1.568-1.394 2.787-3.483 2.787-1.742 0-3.309-.697-4.703-1.916l-1.567 2.787c1.916 1.741 4.529 2.612 7.141 2.612 3.657 0 7.14-1.393 7.14-6.096v-10.45h-4.528v-.173zm7.215 2.119l1.916 2.961c1.219-1.045 3.657-2.264 5.573-2.264s2.787.697 2.787 1.742c0 2.613-9.579.523-9.579 6.792 0 2.786 2.438 5.051 6.618 5.051 2.787 0 4.877-.871 6.445-2.264l-1.742-2.961c-1.045 1.045-2.787 1.916-4.703 1.916-1.567 0-2.612-.697-2.612-1.567 0-2.438 9.579-.348 9.579-6.966 0-2.961-2.438-5.225-6.967-5.225-2.961.173-5.748 1.217-7.315 2.785"/></g><path fill="#ff9100" d="M191.997 274.508h-4.18v22.293h4.18v-22.293zm-13.236 3.309c1.393 0 2.613.697 3.483 1.742l2.787-2.613c-1.045-1.567-3.135-2.961-6.444-2.961-5.051 0-8.534 3.483-8.534 8.534 0 4.877 3.657 8.534 8.534 8.534 3.309 0 5.399-1.393 6.444-2.961l-2.787-2.613c-.697 1.219-1.915 1.742-3.483 1.742-2.613 0-4.354-1.916-4.354-4.703s1.741-4.701 4.354-4.701m-13.934-3.832c-1.393 0-2.786 1.219-2.786 2.786a2.75 2.75 0 1 0 5.573 0c0-1.568-1.393-2.786-2.787-2.786m37.097 26.996a2.75 2.75 0 0 1-2.787 2.787h-39.36a2.75 2.75 0 0 1-2.787-2.787v-32.046a2.75 2.75 0 0 1 2.787-2.786h39.36a2.75 2.75 0 0 1 2.787 2.786v32.046z"/></g></g></svg>